<svg width="800" height="800" viewBox="0 0 800 800" fill="none" xmlns="http://www.w3.org/2000/svg">
<rect width="800" height="800" fill="black"/>
<path d="M558.495 524.796L451.282 468.594C431.67 458.138 417.288 452.91 401.599 452.91C385.909 452.91 371.527 458.138 351.915 468.594L240.78 524.796C227.705 531.331 213.323 535.252 200.249 535.252C184.559 535.252 168.869 530.024 158.41 515.647C137.49 489.507 142.72 452.91 167.562 433.305L364.989 277.77C375.449 269.928 388.524 266.006 401.599 266.006C414.673 266.006 429.055 269.928 438.208 277.77L631.713 433.305C657.862 454.217 661.785 490.814 640.865 515.647C629.098 530.024 614.716 535.252 599.026 535.252C585.952 535.252 571.569 531.331 558.495 524.796Z" fill="#EFF2F1"/>
</svg>
